<?xml version="1.0" encoding="utf-8"?>
<!-- Generator: Adobe Illustrator 24.0.2, SVG Export Plug-In . SVG Version: 6.00 Build 0)  -->
<svg version="1.1" id="visual" xmlns="http://www.w3.org/2000/svg" xmlns:xlink="http://www.w3.org/1999/xlink" x="0px" y="0px"
	 viewBox="0 0 900 600" style="enable-background:new 0 0 900 600;" xml:space="preserve">
<style type="text/css">
	.st0{fill:#931C1C;}
	.st1{fill:#F5730A;}
	.st2{fill:#DA5B09;}
	.st3{fill:url(#SVGID_1_);stroke:#FFFFFF;stroke-miterlimit:10;}
	.st4{fill:url(#SVGID_2_);stroke:#FFFFFF;stroke-miterlimit:10;}
	.st5{fill:#FFFFFF;stroke:#FFFFFF;stroke-miterlimit:10;}
	.st6{fill:url(#SVGID_3_);stroke:#FFFFFF;stroke-miterlimit:10;}
	.st7{fill:url(#SVGID_4_);stroke:#FFFFFF;stroke-miterlimit:10;}
	.st8{fill:url(#SVGID_5_);stroke:#FFFFFF;stroke-miterlimit:10;}
	.st9{fill:url(#SVGID_6_);stroke:#FFFFFF;stroke-miterlimit:10;}
	.st10{fill:url(#SVGID_7_);stroke:#FFFFFF;stroke-miterlimit:10;}
	.st11{fill:url(#SVGID_8_);stroke:#FFFFFF;stroke-miterlimit:10;}
	.st12{fill:url(#SVGID_9_);stroke:#FFFFFF;stroke-miterlimit:10;}
	.st13{fill:url(#SVGID_10_);stroke:#FFFFFF;stroke-miterlimit:10;}
	.st14{fill:url(#SVGID_11_);stroke:#FFFFFF;stroke-miterlimit:10;}
	.st15{fill:url(#SVGID_12_);stroke:#FFFFFF;stroke-miterlimit:10;}
	.st16{fill:url(#SVGID_13_);stroke:#FFFFFF;stroke-miterlimit:10;}
	.st17{fill:none;stroke:#FFFFFF;stroke-miterlimit:10;}
	.st18{fill:#BE4407;}
	.st19{fill:#A32D04;}
	.st20{fill:#871400;}
</style>
<rect class="st0" width="900" height="600"/>
<path class="st1" d="M0,414l129-20l128,45l129-12l128-1l129,4l128-43l129,60v154H771H643H514H386H257H129H0V414z"/>
<path class="st2" d="M0,438l129,22l128,11l129-71l128,20l129,9l128,31l129,19v122H771H643H514H386H257H129H0V438z"/>
<linearGradient id="SVGID_1_" gradientUnits="userSpaceOnUse" x1="608.92" y1="381.45" x2="720.2" y2="381.45">
	<stop  offset="0" style="stop-color:#931C1C"/>
	<stop  offset="0.1694" style="stop-color:#99221B"/>
	<stop  offset="0.4025" style="stop-color:#AB3118"/>
	<stop  offset="0.6723" style="stop-color:#C84B12"/>
	<stop  offset="0.968" style="stop-color:#F06F0B"/>
	<stop  offset="1" style="stop-color:#F5730A"/>
</linearGradient>
<path class="st3" d="M720.2,254.2l-0.9,25.9v28l-1.6,29.7l0.1,48.8l-0.1,11.4l0.1,110.7l-103.4-11.2l-5.5-3.8v-2.6l1.3-1.8l3.4-1.5
	l1.3-13.4l0.8-13.8l1.8-15.2l7-39l4.9-23.2l4.2-11.7l11.2-40.3l8.5-35.3l1.1-6.2l1.2-9l-0.5-1.2C655.1,279.6,717.9,256,720.2,254.2z
	"/>
<linearGradient id="SVGID_2_" gradientUnits="userSpaceOnUse" x1="699.4188" y1="381.9961" x2="857.8954" y2="377.2831">
	<stop  offset="0.1147" style="stop-color:#931C1C"/>
	<stop  offset="0.1377" style="stop-color:#9F271A"/>
	<stop  offset="0.1995" style="stop-color:#BA3E15"/>
	<stop  offset="0.2706" style="stop-color:#D05211"/>
	<stop  offset="0.3536" style="stop-color:#E1610E"/>
	<stop  offset="0.4563" style="stop-color:#EC6B0C"/>
	<stop  offset="0.6002" style="stop-color:#F3710A"/>
	<stop  offset="1" style="stop-color:#F5730A"/>
</linearGradient>
<path class="st4" d="M813.9,493v4.6l-96.1,11.2L717.7,398l0.1-11.4l-0.1-48.8l1.6-29.7v-28l0.9-25.9c2.3-1.9,53.3,28.4,53.3,28.4
	c-0.5,0.5-0.8,0.9-0.8,0.9l1.6,12.5l1.6,9.6l5.2,21.5l9.1,33.2l9.6,41.2c0,0,2.8,17.3,2.6,20.5c-0.2,3.2,5.2,41.3,5.2,41.3V474
	l0.6,10.5v4.4h2.2l2.8,0.9L813.9,493z"/>
<path class="st5" d="M775.4,277.4c0,0-0.1,3.8-0.6,4c-0.2,0.1-0.8,0.6-1.3,1.1c0,0-51-30.2-53.3-28.4l0.8-11.5
	c5.7-1.9,53.9,31.4,53.9,31.4L775.4,277.4z"/>
<path class="st5" d="M721,242.7l-0.8,11.5c-2.3,1.9-65.1,25.4-65.1,25.4l-0.8-2v-2.7l0.6-2.5l-0.2-2
	C654.7,270.5,715.2,244.6,721,242.7z"/>
<linearGradient id="SVGID_3_" gradientUnits="userSpaceOnUse" x1="654.46" y1="241.385" x2="720.98" y2="241.385">
	<stop  offset="0.1147" style="stop-color:#931C1C"/>
	<stop  offset="0.1377" style="stop-color:#9F271A"/>
	<stop  offset="0.1995" style="stop-color:#BA3E15"/>
	<stop  offset="0.2706" style="stop-color:#D05211"/>
	<stop  offset="0.3536" style="stop-color:#E1610E"/>
	<stop  offset="0.4563" style="stop-color:#EC6B0C"/>
	<stop  offset="0.6002" style="stop-color:#F3710A"/>
	<stop  offset="1" style="stop-color:#F5730A"/>
</linearGradient>
<path class="st6" d="M721,242.7c-5.7,1.9-66.3,27.7-66.3,27.7l-0.3-2.9v-10.3l1.8-9.4l0.7-4.2c0,0,57.9-30,63.9-31.3L721,242.7z"/>
<linearGradient id="SVGID_4_" gradientUnits="userSpaceOnUse" x1="720.78" y1="243.1978" x2="776.6998" y2="243.1978">
	<stop  offset="0.1147" style="stop-color:#931C1C"/>
	<stop  offset="0.1377" style="stop-color:#9F271A"/>
	<stop  offset="0.1995" style="stop-color:#BA3E15"/>
	<stop  offset="0.2706" style="stop-color:#D05211"/>
	<stop  offset="0.3536" style="stop-color:#E1610E"/>
	<stop  offset="0.4563" style="stop-color:#EC6B0C"/>
	<stop  offset="0.6002" style="stop-color:#F3710A"/>
	<stop  offset="1" style="stop-color:#F5730A"/>
</linearGradient>
<path class="st7" d="M776.5,272.8c-0.6,0.4-1.6,1.3-1.6,1.3s-48.2-33.2-53.9-31.4l-0.2-30.4c5.9-1.3,53.9,36.4,53.9,36.4l1.2,19.1
	C775.9,267.8,777.1,272.4,776.5,272.8z"/>
<linearGradient id="SVGID_5_" gradientUnits="userSpaceOnUse" x1="720.78" y1="212.095" x2="776.53" y2="212.095">
	<stop  offset="0.1147" style="stop-color:#931C1C"/>
	<stop  offset="0.1377" style="stop-color:#9F271A"/>
	<stop  offset="0.1995" style="stop-color:#BA3E15"/>
	<stop  offset="0.2706" style="stop-color:#D05211"/>
	<stop  offset="0.3536" style="stop-color:#E1610E"/>
	<stop  offset="0.4563" style="stop-color:#EC6B0C"/>
	<stop  offset="0.6002" style="stop-color:#F3710A"/>
	<stop  offset="1" style="stop-color:#F5730A"/>
</linearGradient>
<path class="st8" d="M776.5,245.3v2.7l-1.9,0.7c0,0-48-37.7-53.9-36.4l0.5-36.8l13.4,8l-0.9,1.1h-1V195l0.6,4.9L753,213l12.8,9.3
	l1.2-0.6c0,0-0.2-6.8-0.5-14.4l0.5-0.2l6.5,3.5l2.3,2.2l-0.1,1.5l-1.6,1l0.5,4.8l1.6,18.6L776.5,245.3z"/>
<linearGradient id="SVGID_6_" gradientUnits="userSpaceOnUse" x1="654.46" y1="209.565" x2="721.29" y2="209.565">
	<stop  offset="0.1147" style="stop-color:#931C1C"/>
	<stop  offset="0.1377" style="stop-color:#9F271A"/>
	<stop  offset="0.1995" style="stop-color:#BA3E15"/>
	<stop  offset="0.2706" style="stop-color:#D05211"/>
	<stop  offset="0.3536" style="stop-color:#E1610E"/>
	<stop  offset="0.4563" style="stop-color:#EC6B0C"/>
	<stop  offset="0.6002" style="stop-color:#F3710A"/>
	<stop  offset="1" style="stop-color:#F5730A"/>
</linearGradient>
<path class="st9" d="M721.3,175.5l-0.5,36.8c-6,1.3-63.9,31.3-63.9,31.3l-2.4-1.9l2.4-15.8l0.5-11.1l-3-2.3l1.1-0.9l2.6-1.2l0.4-2.1
	l-0.9-1.2l-1.2-0.5l0.5-2l2.1-1.6l0.1-1.8c0,0-0.4-1.6-1-1.7c-0.6-0.1-1.2-1.4-1.2-1.4l0.9-1.4l4.3-2.3l3.3-1.5l1.7-3.3l0.6-2.3
	l1.7-0.1l1.6,1.7v2.6l3.5,2.7l3.8,2.8v1.5l-2.7,1.2v3.6l2.6,1l1.3,1.8l-1.2,1.5l-1.7,1v2.7l2.1,0.9l1.1,1.4l25.8-13.7l-1.2-1.4
	l1.3-0.7l2.3-2v-1.4l-0.5-2.8l-0.2-1.6l0.4-2.5v-2.2c0,0-1.1-1.2-1.5-1.4L721.3,175.5z"/>
<linearGradient id="SVGID_7_" gradientUnits="userSpaceOnUse" x1="705.31" y1="173.96" x2="721.29" y2="173.96">
	<stop  offset="0.1147" style="stop-color:#931C1C"/>
	<stop  offset="0.1377" style="stop-color:#9F271A"/>
	<stop  offset="0.1995" style="stop-color:#BA3E15"/>
	<stop  offset="0.2706" style="stop-color:#D05211"/>
	<stop  offset="0.3536" style="stop-color:#E1610E"/>
	<stop  offset="0.4563" style="stop-color:#EC6B0C"/>
	<stop  offset="0.6002" style="stop-color:#F3710A"/>
	<stop  offset="1" style="stop-color:#F5730A"/>
</linearGradient>
<path class="st10" d="M721.3,175.5l-15,8.4c-0.4-0.1,0.7-1.5,0.7-1.5l2.8-1.7l0.5-3.6l-1.1-1.9c0,0-2.6-1.1-3.4-1.4
	c-0.3-0.1-0.4-0.4-0.6-0.9l13.9-9l0.8,0.4v0L721.3,175.5z"/>
<linearGradient id="SVGID_8_" gradientUnits="userSpaceOnUse" x1="719.96" y1="174" x2="734.73" y2="174">
	<stop  offset="0.1147" style="stop-color:#931C1C"/>
	<stop  offset="0.1377" style="stop-color:#9F271A"/>
	<stop  offset="0.1995" style="stop-color:#BA3E15"/>
	<stop  offset="0.2706" style="stop-color:#D05211"/>
	<stop  offset="0.3536" style="stop-color:#E1610E"/>
	<stop  offset="0.4563" style="stop-color:#EC6B0C"/>
	<stop  offset="0.6002" style="stop-color:#F3710A"/>
	<stop  offset="1" style="stop-color:#F5730A"/>
</linearGradient>
<polygon class="st11" points="734.7,183.5 721.3,175.5 720,164.5 734.6,173 733.1,174.4 731.5,175.7 731.5,180.4 732.9,181.9 "/>
<linearGradient id="SVGID_9_" gradientUnits="userSpaceOnUse" x1="719.96" y1="162.16" x2="734.6" y2="162.16">
	<stop  offset="0.1147" style="stop-color:#931C1C"/>
	<stop  offset="0.1377" style="stop-color:#9F271A"/>
	<stop  offset="0.1995" style="stop-color:#BA3E15"/>
	<stop  offset="0.2706" style="stop-color:#D05211"/>
	<stop  offset="0.3536" style="stop-color:#E1610E"/>
	<stop  offset="0.4563" style="stop-color:#EC6B0C"/>
	<stop  offset="0.6002" style="stop-color:#F3710A"/>
	<stop  offset="1" style="stop-color:#F5730A"/>
</linearGradient>
<polygon class="st12" points="732.6,169.6 734.6,171.2 734.6,173 720,164.5 720,164.5 721.3,151.3 722.2,151.3 723.3,153.8 
	725.1,155.6 727.2,156.2 729.8,157.6 732.4,159.8 734.6,161 734.4,163.3 732,164.5 729.8,165.5 729.8,167.7 "/>
<linearGradient id="SVGID_10_" gradientUnits="userSpaceOnUse" x1="705.01" y1="162.16" x2="721.29" y2="162.16">
	<stop  offset="0.1147" style="stop-color:#931C1C"/>
	<stop  offset="0.1377" style="stop-color:#9F271A"/>
	<stop  offset="0.1995" style="stop-color:#BA3E15"/>
	<stop  offset="0.2706" style="stop-color:#D05211"/>
	<stop  offset="0.3536" style="stop-color:#E1610E"/>
	<stop  offset="0.4563" style="stop-color:#EC6B0C"/>
	<stop  offset="0.6002" style="stop-color:#F3710A"/>
	<stop  offset="1" style="stop-color:#F5730A"/>
</linearGradient>
<path class="st13" d="M721.3,151.3l-1.3,13.2l-0.8-0.4l-13.9,9c-0.2-0.8-0.3-1.9-0.3-1.9l3.5-2.2l2.2-1.7l-0.4-2.6l-1.1-1.1l-2-0.9
	l2-3l2.7-2.2l5.5-3.6l2.6-2.6H721.3z"/>
<linearGradient id="SVGID_11_" gradientUnits="userSpaceOnUse" x1="752.24" y1="210.245" x2="766.94" y2="210.245">
	<stop  offset="0.1147" style="stop-color:#931C1C"/>
	<stop  offset="0.1377" style="stop-color:#9F271A"/>
	<stop  offset="0.1995" style="stop-color:#BA3E15"/>
	<stop  offset="0.2706" style="stop-color:#D05211"/>
	<stop  offset="0.3536" style="stop-color:#E1610E"/>
	<stop  offset="0.4563" style="stop-color:#EC6B0C"/>
	<stop  offset="0.6002" style="stop-color:#F3710A"/>
	<stop  offset="1" style="stop-color:#F5730A"/>
</linearGradient>
<path class="st14" d="M766.9,221.7l-1.2,0.6L753,213l0.6-1.1l2.1-0.4v-4.3c0,0-1.5-0.9-2.5-1.3c-1-0.5-1-1.7-1-1.7l13.8-5.9
	c0.2,2.9,0.3,6.1,0.4,9.1C766.8,215,766.9,221.7,766.9,221.7z"/>
<linearGradient id="SVGID_12_" gradientUnits="userSpaceOnUse" x1="764.72" y1="198.19" x2="777.02" y2="198.19">
	<stop  offset="0.1147" style="stop-color:#931C1C"/>
	<stop  offset="0.1377" style="stop-color:#9F271A"/>
	<stop  offset="0.1995" style="stop-color:#BA3E15"/>
	<stop  offset="0.2706" style="stop-color:#D05211"/>
	<stop  offset="0.3536" style="stop-color:#E1610E"/>
	<stop  offset="0.4563" style="stop-color:#EC6B0C"/>
	<stop  offset="0.6002" style="stop-color:#F3710A"/>
	<stop  offset="1" style="stop-color:#F5730A"/>
</linearGradient>
<path class="st15" d="M777,203.8l-1,1.6l-2.3,1.1l-1,1.4l0.7,2.7l-6.5-3.5l-0.5,0.2c-0.1-3-0.3-6.2-0.4-9.1
	c-0.4-6.5-0.8-11.9-1.3-12.4l1.1,0.3l0.7,1.5v1.5l1.2,0.6l2.6,1.4v1.5l1.6,0.5l3.9,3.6l-1,1l-3,1.2v2l2,1.4L777,203.8z"/>
<linearGradient id="SVGID_13_" gradientUnits="userSpaceOnUse" x1="752.24" y1="194.83" x2="766.01" y2="194.83">
	<stop  offset="0.1147" style="stop-color:#931C1C"/>
	<stop  offset="0.1377" style="stop-color:#9F271A"/>
	<stop  offset="0.1995" style="stop-color:#BA3E15"/>
	<stop  offset="0.2706" style="stop-color:#D05211"/>
	<stop  offset="0.3536" style="stop-color:#E1610E"/>
	<stop  offset="0.4563" style="stop-color:#EC6B0C"/>
	<stop  offset="0.6002" style="stop-color:#F3710A"/>
	<stop  offset="1" style="stop-color:#F5730A"/>
</linearGradient>
<path class="st16" d="M752.2,204.1l4.6-2.8l-0.1-2.7l-2.2-1.6l-1-1.6v-0.7l5.2-3.5l3.8-2.2v-2l1.6-1.4l0.5,0.2c0,0,0.1,0,0.1,0
	c0,0,0,0,0,0c0.5,0.5,0.9,5.9,1.3,12.4L752.2,204.1z"/>
<polyline class="st17" points="766,198.2 766.3,198.1 770.9,200.4 "/>
<line class="st17" x1="766.4" y1="207.3" x2="756.2" y2="211.7"/>
<path class="st18" d="M0,463l129,48l128-43l129,7l128,29l129-15l128-43l129,36v119H771H643H514H386H257H129H0V463z"/>
<path class="st19" d="M0,493l129-9l128,5l129-3l128,38l129-43l128,28l129-10v102H771H643H514H386H257H129H0V493z"/>
<path class="st20" d="M0,539h129l128,31l129-14l128,17l129-41l128,25l129,16v28H771H643H514H386H257H129H0V539z"/>
<image style="display:none;overflow:visible;" width="719" height="1280" xlink:href="IMG_4170.JPG"  transform="matrix(0.3659 0 0 0.3659 577.6996 107)">
</image>
</svg>
